<svg width="74" height="74" fill="none" xmlns="http://www.w3.org/2000/svg"><g clip-path="url(#clip0_1_3694)" fill="#fff"><path d="M36.741 68.87a31.814 31.814 0 01-22.471-9.288 31.675 31.675 0 01-9.308-22.423c0-8.41 3.348-16.476 9.308-22.423A31.814 31.814 0 0136.74 5.45c8.429 0 16.512 3.34 22.472 9.287A31.676 31.676 0 0168.52 37.16a31.68 31.68 0 01-9.308 22.423A31.814 31.814 0 0136.74 68.87zm0 4.53a36.36 36.36 0 0025.682-10.615A36.2 36.2 0 0073.06 37.159a36.2 36.2 0 00-10.638-25.626A36.36 36.36 0 0036.74.918a36.36 36.36 0 00-25.68 10.615A36.2 36.2 0 00.422 37.16 36.2 36.2 0 0011.06 62.785 36.36 36.36 0 0036.74 73.4z"/><path d="M28.892 23.818a2.274 2.274 0 012.36.172l15.89 11.325a2.266 2.266 0 01.7 2.88 2.262 2.262 0 01-.7.808l-15.89 11.325a2.274 2.274 0 01-3.259-.663 2.26 2.26 0 01-.332-1.18V25.833a2.26 2.26 0 011.23-2.016z"/></g><defs><clipPath id="clip0_1_3694"><path fill="#fff" transform="translate(.422 .918)" d="M0 0h72.639v72.481H0z"/></clipPath></defs></svg>