<svg width="8" height="14" fill="none" xmlns="http://www.w3.org/2000/svg"><path fill-rule="evenodd" clip-rule="evenodd" d="M.577.678A.292.292 0 01.989.66L7.23 6.383a.837.837 0 01-.001 1.23h-.002L.988 13.34a.292.292 0 01-.394-.43l6.244-5.73a.252.252 0 00-.002-.368L.595 1.09A.292.292 0 01.577.678z" fill="#fff"/><path d="M6.836 6.812c.11.102.105.275.002.368L.594 12.91a.292.292 0 00.395.43l6.24-5.727h0a.835.835 0 00.002-1.23L.99.66a.292.292 0 10-.394.43l6.24 5.722zm0 0v0z" stroke="#fff" stroke-miterlimit="1" stroke-linecap="round" stroke-linejoin="round"/></svg>