<svg width="19" height="19" fill="none" xmlns="http://www.w3.org/2000/svg"><path d="M9.002 18.04c-2.46 0-2.75-.012-3.71-.054a6.583 6.583 0 01-2.185-.45 4.62 4.62 0 01-2.63-2.631 6.591 6.591 0 01-.419-2.187C.002 11.76.002 11.446.002 9.005c0-2.467.013-2.755.056-3.71A6.59 6.59 0 01.477 3.11 4.61 4.61 0 013.11.479a6.533 6.533 0 012.184-.42C6.249.005 6.563.005 9.002.005c2.48 0 2.765.013 3.71.054.748.014 1.49.156 2.19.42a4.615 4.615 0 012.633 2.632c.267.71.41 1.46.421 2.217.056.958.056 1.27.056 3.71s-.014 2.76-.056 3.708a6.605 6.605 0 01-.42 2.189 4.626 4.626 0 01-2.634 2.632c-.7.262-1.439.404-2.186.419-.955.055-1.268.055-3.714.055zM8.968 1.589c-2.446 0-2.7.012-3.655.055a4.99 4.99 0 00-1.67.31 2.99 2.99 0 00-1.718 1.713c-.2.54-.305 1.11-.311 1.687-.053.969-.053 1.223-.053 3.652 0 2.4.009 2.69.053 3.654a5.09 5.09 0 00.31 1.67 2.993 2.993 0 001.72 1.71 4.92 4.92 0 001.669.312c.968.056 1.223.056 3.655.056 2.453 0 2.707-.012 3.654-.056a4.962 4.962 0 001.67-.311 3.001 3.001 0 001.71-1.71c.2-.54.305-1.111.311-1.687h.011c.043-.956.043-1.211.043-3.654 0-2.443-.011-2.7-.054-3.655a5.062 5.062 0 00-.311-1.668 3.001 3.001 0 00-1.71-1.712 4.94 4.94 0 00-1.67-.311c-.967-.055-1.22-.055-3.654-.055zm.034 12.036A4.623 4.623 0 1113.622 9a4.63 4.63 0 01-4.62 4.624zm0-7.626a3 3 0 103 3 3.007 3.007 0 00-3-3zm4.8-.713a1.078 1.078 0 11.008-2.156 1.078 1.078 0 01-.008 2.156z" fill="#000"/></svg>