<svg width="12" height="18" fill="none" xmlns="http://www.w3.org/2000/svg"><path d="M7.75 6.188a1.75 1.75 0 10-3.5 0 1.75 1.75 0 003.5 0zm1 0a2.75 2.75 0 11-5.5 0 2.75 2.75 0 015.5 0z" fill="#fff"/><path d="M6 .625c3.713 0 6.796 3.724 4.96 8.01-.855 1.993-1.99 4.12-2.908 5.744a89.865 89.865 0 01-1.502 2.557l-.093.15-.024.04-.007.01c0 .002-.001.002-.002.003a.5.5 0 01-.848 0l-.002-.002-.007-.011-.025-.04-.092-.15a89.91 89.91 0 01-1.502-2.557c-.918-1.623-2.053-3.751-2.908-5.744C-.797 4.348 2.287.625 6 .625zm0 1c-3.036 0-5.578 3.027-4.04 6.615.833 1.944 1.947 4.036 2.858 5.647.454.804.857 1.486 1.145 1.966l.036.06.038-.06a90.7 90.7 0 001.145-1.966c.91-1.611 2.025-3.703 2.858-5.647C11.579 4.652 9.037 1.625 6 1.625z" fill="#fff"/></svg>