<svg width="50" height="50" fill="none" xmlns="http://www.w3.org/2000/svg"><path fill-rule="evenodd" clip-rule="evenodd" d="M45.528 4.472a1.042 1.042 0 010 1.473L5.945 45.528a1.042 1.042 0 01-1.473-1.473L44.055 4.472a1.042 1.042 0 011.473 0zm-9.07 22.611c-3.915 0-7.291 3.613-7.291 8.334 0 4.72 3.376 8.333 7.291 8.333 3.916 0 7.292-3.612 7.292-8.333s-3.377-8.334-7.292-8.334zm-9.375 8.334C27.083 29.782 31.17 25 36.458 25c5.29 0 9.375 4.782 9.375 10.417 0 5.634-4.085 10.416-9.375 10.416s-9.375-4.782-9.375-10.416zM13.542 6.25c-3.915 0-7.292 3.612-7.292 8.333 0 4.722 3.377 8.334 7.292 8.334s7.291-3.613 7.291-8.334c0-4.72-3.376-8.333-7.291-8.333zm-9.375 8.333c0-5.634 4.085-10.416 9.375-10.416s9.375 4.782 9.375 10.416C22.917 20.218 18.83 25 13.542 25c-5.29 0-9.375-4.782-9.375-10.417z" fill="#000"/></svg>