<svg width="59" height="48" fill="none" xmlns="http://www.w3.org/2000/svg"><path d="M58.84 29.211a1.162 1.162 0 00-.567-.49l-4.231-1.732 4.383-2.581a1.162 1.162 0 00-.152-2.08l-4.231-1.733 4.383-2.58c.382-.231.6-.66.558-1.105a1.163 1.163 0 00-.721-.988L41.603 9.098l-8.207-3.487a1.163 1.163 0 00-.418-.082L19.609.09a1.163 1.163 0 00-1.011.058L.684 10.214A1.162 1.162 0 00.8 12.341l4.324 1.79-4.44 2.477a1.163 1.163 0 00.116 2.08l4.324 1.79-4.417 2.477A1.163 1.163 0 00.8 25.129l4.324 1.778-4.417 2.477a1.163 1.163 0 00.116 2.08l15.031 6.382c.055.04.114.075.175.105l8.218 3.487 15.113 6.429c.34.144.728.119 1.046-.07l18.019-10.602a1.162 1.162 0 00-.152-2.08l-4.231-1.733 4.383-2.58c.554-.325.74-1.037.416-1.59zm-3.624-5.64L39.72 32.697l-13.857-5.883v-3.87l13.485 5.73a1.164 1.164 0 001.046-.07L51.52 22.06l3.697 1.511zm.047-6.405L39.72 26.29l-12.59-5.347 14.183-9.474 13.95 5.696zM15.285 35.103L3.88 30.255l3.917-2.197 7.498 3.186-.011 3.86zm0-6.394L3.88 23.862l3.917-2.22 7.498 3.185-.011 3.882zm0-6.393L3.88 17.48l3.917-2.197 7.498 3.185-.011 3.848zM3.88 11.086L19.249 2.45l11.148 4.568-14.043 9.37-12.473-5.3zm20.169 9.137c-.32.217-.512.578-.512.965v17.437l-5.917-2.51V18.34L33.024 8.075l5.731 2.325-14.705 9.823zM55.216 36.36L39.72 45.472 25.863 39.59v-3.86l13.485 5.674c.34.144.729.118 1.046-.07l11.125-6.545 3.697 1.57zM39.72 39.08l-13.857-5.882v-3.86l13.497 5.731c.34.145.728.119 1.046-.07l11.125-6.544 3.685 1.51L39.72 39.08z" fill="#000"/></svg>